# xmcd
#
# Track frame offsets: 
#        182
#        13897
#        27180
#        39925
#        53777
#        67147
#        81217
#        95287
#        108402
#        122290
#        135035
#        149927
#        160222
#        173850
#        187057
#        199985
#        214680
#        229682
#        244190
#        258340
#        271422
#        286760
#
# Disc length: 4026 seconds
#
# Revision: 0
# Processed by: cddbd v1.5.1PL2 Copyright (c) Steve Scherf et al.
# Submitted via: ExactAudioCopy v0.95b3
#
DISCID=3b0fb816
DTITLE=Billie Holyday - Lover Man 1939-1944
DYEAR=1996
DGENRE=Jazz
TTITLE0=Some Other Spring
TTITLE1=Swing, Brother, Swing
TTITLE2=Them There Eyes
TTITLE3=The Man I Love
TTITLE4=Body And Soul
TTITLE5=I'm Pulling Through
TTITLE6=Tell Me More
TTITLE7=Laughing At Life
TTITLE8=Time On My Hands
TTITLE9=St. Louis Blues
TTITLE10=Georgia On My Mind
TTITLE11=Romance In The Dark
TTITLE12=All Of Me
TTITLE13=God Bless The Child
TTITLE14=Am I Blue
TTITLE15=Solitude
TTITLE16=Love Me Or Leave Me
TTITLE17=Gloomy Sunday
TTITLE18=Until The Real Thing Comes Along
TTITLE19=I'll Get By
TTITLE20=I Cover The Waterfront
TTITLE21=Lover Man (Oh, Where Can You Be)
EXTD=
EXTT0=
EXTT1=
EXTT2=
EXTT3=
EXTT4=
EXTT5=
EXTT6=
EXTT7=
EXTT8=
EXTT9=
EXTT10=
EXTT11=
EXTT12=
EXTT13=
EXTT14=
EXTT15=
EXTT16=
EXTT17=
EXTT18=
EXTT19=
EXTT20=
EXTT21=
PLAYORDER=
